# xmcd CD database file
#
# Track frame offsets:
#	150
#	21132
#	41935
#	64487
#	88202
#	99780
#	119407
#	148785
#	165822
#	178117
#	205617
#	220307
#	248937
#	262932
#	278802
#	294650
#	305917
#	325060
#
# Disc length: 4449 seconds
#
# Revision: 0
# Processed by: cddbd v1.5.2PL0 Copyright (c) Steve Scherf et al.
# Submitted via: CDex 1.70beta2
#
DISCID=11115f12
DTITLE=Various Artist - Musikalidentikit
DYEAR=2000
DGENRE=New Age
TTITLE0=Sleepy Township - Caribbean Delight
TTITLE1=The Hired Guns - Loose Change
TTITLE2=By Ferry Or Steamer - Spanish Summers
TTITLE3=The Frustrations - One Trick Pony Show
TTITLE4=Angler - Guts
TTITLE5=The Disappointments - How Delightful
TTITLE6=Gersey - Wish Me Well
TTITLE7=Registered Nurse - Deutsche Fraulein
TTITLE8=The Tigers - The Tinsel Stage
TTITLE9=The Tigers - Slayer Bells
TTITLE10=The Frustrations - Laundry Powder
TTITLE11=Angler - Seduction Of An Old Flame
TTITLE12=Registered Nurse - God Preys On Small Things
TTITLE13=By Ferry Or Steamer - Theme From By Ferry Or Steamer
TTITLE14=The Disappointments - Ok Wonka, How Much?
TTITLE15=Sleepy Township - Stationary
TTITLE16=The Hired Guns - Are You Gonna Leave Her At The Church?
TTITLE17=Gersey - A Few Fans
EXTD=YEAR: 2000
EXTT0=
EXTT1=
EXTT2=
EXTT3=
EXTT4=
EXTT5=
EXTT6=
EXTT7=
EXTT8=
EXTT9=
EXTT10=
EXTT11=
EXTT12=
EXTT13=
EXTT14=
EXTT15=
EXTT16=
EXTT17=
PLAYORDER=
